<mxfile host="app.diagrams.net" agent="Mozilla/5.0 (Windows NT 10.0; Win64; x64) AppleWebKit/537.36 (KHTML, like Gecko) Chrome/133.0.0.0 Safari/537.36" version="26.0.16">
  <diagram id="6a731a19-8d31-9384-78a2-239565b7b9f0" name="Page-1">
    <mxGraphModel dx="4097" dy="3130" grid="1" gridSize="10" guides="1" tooltips="1" connect="1" arrows="1" fold="1" page="1" pageScale="1" pageWidth="1169" pageHeight="827" background="none" math="0" shadow="0">
      <root>
        <mxCell id="0" />
        <mxCell id="1" parent="0" />
        <mxCell id="3QNH7fi-N1RYeguFt9Ue-1555" style="rounded=0;orthogonalLoop=1;jettySize=auto;html=1;exitX=1;exitY=0;exitDx=0;exitDy=0;entryX=0;entryY=0.5;entryDx=0;entryDy=0;shadow=0;fillColor=#fff2cc;strokeColor=#d6b656;strokeWidth=7;" edge="1" parent="1" source="3QNH7fi-N1RYeguFt9Ue-1542" target="3QNH7fi-N1RYeguFt9Ue-1550">
          <mxGeometry relative="1" as="geometry" />
        </mxCell>
        <mxCell id="3QNH7fi-N1RYeguFt9Ue-1556" style="edgeStyle=orthogonalEdgeStyle;rounded=0;orthogonalLoop=1;jettySize=auto;html=1;exitX=1;exitY=0.5;exitDx=0;exitDy=0;entryX=0;entryY=0.5;entryDx=0;entryDy=0;fillColor=#fff2cc;strokeColor=#d6b656;strokeWidth=7;" edge="1" parent="1" source="3QNH7fi-N1RYeguFt9Ue-1542" target="3QNH7fi-N1RYeguFt9Ue-1549">
          <mxGeometry relative="1" as="geometry" />
        </mxCell>
        <mxCell id="3QNH7fi-N1RYeguFt9Ue-1557" style="rounded=0;orthogonalLoop=1;jettySize=auto;html=1;exitX=1;exitY=1;exitDx=0;exitDy=0;entryX=0;entryY=0.5;entryDx=0;entryDy=0;fillColor=#fff2cc;strokeColor=#d6b656;strokeWidth=7;" edge="1" parent="1" source="3QNH7fi-N1RYeguFt9Ue-1542" target="3QNH7fi-N1RYeguFt9Ue-1548">
          <mxGeometry relative="1" as="geometry" />
        </mxCell>
        <mxCell id="3QNH7fi-N1RYeguFt9Ue-1558" style="rounded=0;orthogonalLoop=1;jettySize=auto;html=1;exitX=1;exitY=1;exitDx=0;exitDy=0;entryX=0;entryY=0.5;entryDx=0;entryDy=0;fillColor=#fff2cc;strokeColor=#d6b656;strokeWidth=7;" edge="1" parent="1" source="3QNH7fi-N1RYeguFt9Ue-1542" target="3QNH7fi-N1RYeguFt9Ue-1547">
          <mxGeometry relative="1" as="geometry" />
        </mxCell>
        <mxCell id="3QNH7fi-N1RYeguFt9Ue-1656" style="edgeStyle=orthogonalEdgeStyle;rounded=0;orthogonalLoop=1;jettySize=auto;html=1;exitX=0.5;exitY=0;exitDx=0;exitDy=0;entryX=0.5;entryY=0;entryDx=0;entryDy=0;strokeWidth=7;fillColor=#dae8fc;strokeColor=#6c8ebf;" edge="1" parent="1" source="3QNH7fi-N1RYeguFt9Ue-1542" target="3QNH7fi-N1RYeguFt9Ue-1626">
          <mxGeometry relative="1" as="geometry">
            <Array as="points">
              <mxPoint x="220" y="30" />
              <mxPoint x="1585" y="30" />
            </Array>
          </mxGeometry>
        </mxCell>
        <mxCell id="3QNH7fi-N1RYeguFt9Ue-1665" style="edgeStyle=orthogonalEdgeStyle;rounded=0;orthogonalLoop=1;jettySize=auto;html=1;exitX=0.5;exitY=1;exitDx=0;exitDy=0;entryX=0.5;entryY=0;entryDx=0;entryDy=0;fillColor=#dae8fc;strokeColor=#6c8ebf;strokeWidth=7;" edge="1" parent="1" source="3QNH7fi-N1RYeguFt9Ue-1542" target="3QNH7fi-N1RYeguFt9Ue-1641">
          <mxGeometry relative="1" as="geometry">
            <Array as="points">
              <mxPoint x="220" y="430" />
              <mxPoint x="1575" y="430" />
            </Array>
          </mxGeometry>
        </mxCell>
        <mxCell id="3QNH7fi-N1RYeguFt9Ue-1542" value="&lt;font style=&quot;font-size: 24px;&quot;&gt;stagaire1&lt;/font&gt;" style="ellipse;whiteSpace=wrap;html=1;fillColor=#f8cecc;strokeColor=#b85450;" vertex="1" parent="1">
          <mxGeometry x="140" y="150" width="160" height="110" as="geometry" />
        </mxCell>
        <mxCell id="3QNH7fi-N1RYeguFt9Ue-1547" value="&lt;font&gt;l&#39;informatique&lt;/font&gt;" style="ellipse;whiteSpace=wrap;html=1;fillColor=#fff2cc;strokeColor=#d6b656;strokeWidth=7;fontSize=24;" vertex="1" parent="1">
          <mxGeometry x="1230" y="611" width="170" height="80" as="geometry" />
        </mxCell>
        <mxCell id="3QNH7fi-N1RYeguFt9Ue-1548" value="&lt;font&gt;Esi-sba&lt;/font&gt;" style="ellipse;whiteSpace=wrap;html=1;fillColor=#fff2cc;strokeColor=#d6b656;strokeWidth=7;fontSize=24;" vertex="1" parent="1">
          <mxGeometry x="710" y="260" width="120" height="80" as="geometry" />
        </mxCell>
        <mxCell id="3QNH7fi-N1RYeguFt9Ue-1549" value="&lt;font&gt;touahri&lt;/font&gt;" style="ellipse;whiteSpace=wrap;html=1;fillColor=#fff2cc;strokeColor=#d6b656;strokeWidth=7;fontSize=24;" vertex="1" parent="1">
          <mxGeometry x="710" y="165" width="120" height="80" as="geometry" />
        </mxCell>
        <mxCell id="3QNH7fi-N1RYeguFt9Ue-1550" value="&lt;font&gt;sara&lt;/font&gt;" style="ellipse;whiteSpace=wrap;html=1;fillColor=#fff2cc;strokeColor=#d6b656;strokeWidth=7;fontSize=24;" vertex="1" parent="1">
          <mxGeometry x="710" y="60" width="120" height="80" as="geometry" />
        </mxCell>
        <mxCell id="3QNH7fi-N1RYeguFt9Ue-1566" value="[aPourPrenom]" style="text;strokeColor=none;align=center;fillColor=none;html=1;verticalAlign=middle;whiteSpace=wrap;rounded=0;rotation=-9;strokeWidth=7;fontSize=24;" vertex="1" parent="1">
          <mxGeometry x="450" y="100" width="60" height="30" as="geometry" />
        </mxCell>
        <mxCell id="3QNH7fi-N1RYeguFt9Ue-1568" value="[aPourNom]" style="text;strokeColor=none;align=center;fillColor=none;html=1;verticalAlign=middle;whiteSpace=wrap;rounded=0;rotation=0;strokeWidth=7;fontSize=24;" vertex="1" parent="1">
          <mxGeometry x="461" y="171" width="60" height="30" as="geometry" />
        </mxCell>
        <mxCell id="3QNH7fi-N1RYeguFt9Ue-1570" value="[etudieAl&#39;ecole]" style="text;strokeColor=none;align=center;fillColor=none;html=1;verticalAlign=middle;whiteSpace=wrap;rounded=0;rotation=5;strokeWidth=7;fontSize=24;" vertex="1" parent="1">
          <mxGeometry x="470" y="235" width="60" height="30" as="geometry" />
        </mxCell>
        <mxCell id="3QNH7fi-N1RYeguFt9Ue-1571" value="[etudieDansLeDomaine]" style="text;strokeColor=none;align=center;fillColor=none;html=1;verticalAlign=middle;whiteSpace=wrap;rounded=0;rotation=20;strokeWidth=7;fontSize=24;" vertex="1" parent="1">
          <mxGeometry x="481" y="306" width="60" height="30" as="geometry" />
        </mxCell>
        <mxCell id="3QNH7fi-N1RYeguFt9Ue-1597" style="rounded=0;orthogonalLoop=1;jettySize=auto;html=1;exitX=1;exitY=0;exitDx=0;exitDy=0;entryX=0;entryY=0.5;entryDx=0;entryDy=0;shadow=0;fillColor=#fff2cc;strokeColor=#d6b656;strokeWidth=7;" edge="1" parent="1" source="3QNH7fi-N1RYeguFt9Ue-1601" target="3QNH7fi-N1RYeguFt9Ue-1605">
          <mxGeometry relative="1" as="geometry" />
        </mxCell>
        <mxCell id="3QNH7fi-N1RYeguFt9Ue-1598" style="rounded=0;orthogonalLoop=1;jettySize=auto;html=1;exitX=1;exitY=0.5;exitDx=0;exitDy=0;entryX=0;entryY=0.5;entryDx=0;entryDy=0;fillColor=#fff2cc;strokeColor=#d6b656;strokeWidth=7;" edge="1" parent="1" source="3QNH7fi-N1RYeguFt9Ue-1601" target="3QNH7fi-N1RYeguFt9Ue-1604">
          <mxGeometry relative="1" as="geometry" />
        </mxCell>
        <mxCell id="3QNH7fi-N1RYeguFt9Ue-1599" style="rounded=0;orthogonalLoop=1;jettySize=auto;html=1;exitX=1;exitY=1;exitDx=0;exitDy=0;entryX=0;entryY=0.5;entryDx=0;entryDy=0;fillColor=#fff2cc;strokeColor=#d6b656;strokeWidth=7;" edge="1" parent="1" source="3QNH7fi-N1RYeguFt9Ue-1601" target="3QNH7fi-N1RYeguFt9Ue-1603">
          <mxGeometry relative="1" as="geometry" />
        </mxCell>
        <mxCell id="3QNH7fi-N1RYeguFt9Ue-1600" style="rounded=0;orthogonalLoop=1;jettySize=auto;html=1;exitX=1;exitY=1;exitDx=0;exitDy=0;entryX=0;entryY=0.5;entryDx=0;entryDy=0;fillColor=#fff2cc;strokeColor=#d6b656;strokeWidth=7;" edge="1" parent="1" source="3QNH7fi-N1RYeguFt9Ue-1601" target="3QNH7fi-N1RYeguFt9Ue-1602">
          <mxGeometry relative="1" as="geometry" />
        </mxCell>
        <mxCell id="3QNH7fi-N1RYeguFt9Ue-1658" style="edgeStyle=orthogonalEdgeStyle;rounded=0;orthogonalLoop=1;jettySize=auto;html=1;exitX=0.5;exitY=1;exitDx=0;exitDy=0;entryX=0;entryY=0.5;entryDx=0;entryDy=0;fillColor=#dae8fc;strokeColor=#6c8ebf;strokeWidth=7;" edge="1" parent="1" source="3QNH7fi-N1RYeguFt9Ue-1601" target="3QNH7fi-N1RYeguFt9Ue-1641">
          <mxGeometry relative="1" as="geometry" />
        </mxCell>
        <mxCell id="3QNH7fi-N1RYeguFt9Ue-1601" value="&lt;font style=&quot;font-size: 24px;&quot;&gt;stagaire2&lt;/font&gt;" style="ellipse;whiteSpace=wrap;html=1;fillColor=#f8cecc;strokeColor=#b85450;" vertex="1" parent="1">
          <mxGeometry x="142.5" y="590" width="160" height="110" as="geometry" />
        </mxCell>
        <mxCell id="3QNH7fi-N1RYeguFt9Ue-1602" value="&lt;font&gt;l&#39;informatique&lt;/font&gt;" style="ellipse;whiteSpace=wrap;html=1;fillColor=#fff2cc;strokeColor=#d6b656;strokeWidth=7;fontSize=24;" vertex="1" parent="1">
          <mxGeometry x="1230" y="611" width="170" height="80" as="geometry" />
        </mxCell>
        <mxCell id="3QNH7fi-N1RYeguFt9Ue-1603" value="&lt;font&gt;Esi-sba&lt;/font&gt;" style="ellipse;whiteSpace=wrap;html=1;fillColor=#fff2cc;strokeColor=#d6b656;strokeWidth=7;fontSize=24;" vertex="1" parent="1">
          <mxGeometry x="720" y="721" width="120" height="80" as="geometry" />
        </mxCell>
        <mxCell id="3QNH7fi-N1RYeguFt9Ue-1604" value="&lt;font&gt;nassane&lt;/font&gt;" style="ellipse;whiteSpace=wrap;html=1;fillColor=#fff2cc;strokeColor=#d6b656;strokeWidth=7;fontSize=24;" vertex="1" parent="1">
          <mxGeometry x="720" y="560" width="120" height="80" as="geometry" />
        </mxCell>
        <mxCell id="3QNH7fi-N1RYeguFt9Ue-1605" value="&lt;font&gt;marwa&lt;/font&gt;" style="ellipse;whiteSpace=wrap;html=1;fillColor=#fff2cc;strokeColor=#d6b656;strokeWidth=7;fontSize=24;" vertex="1" parent="1">
          <mxGeometry x="710" y="460" width="120" height="80" as="geometry" />
        </mxCell>
        <mxCell id="3QNH7fi-N1RYeguFt9Ue-1606" value="[aPourPrenom]" style="text;strokeColor=none;align=center;fillColor=none;html=1;verticalAlign=middle;whiteSpace=wrap;rounded=0;rotation=-15;strokeWidth=7;fontSize=24;" vertex="1" parent="1">
          <mxGeometry x="452.5" y="520" width="60" height="30" as="geometry" />
        </mxCell>
        <mxCell id="3QNH7fi-N1RYeguFt9Ue-1607" value="[aPourNom]" style="text;strokeColor=none;align=center;fillColor=none;html=1;verticalAlign=middle;whiteSpace=wrap;rounded=0;rotation=0;strokeWidth=7;fontSize=24;" vertex="1" parent="1">
          <mxGeometry x="463.5" y="587" width="60" height="30" as="geometry" />
        </mxCell>
        <mxCell id="3QNH7fi-N1RYeguFt9Ue-1608" value="[etudieAl&#39;ecole]" style="text;strokeColor=none;align=center;fillColor=none;html=1;verticalAlign=middle;whiteSpace=wrap;rounded=0;rotation=10;strokeWidth=7;fontSize=24;" vertex="1" parent="1">
          <mxGeometry x="550" y="700" width="60" height="30" as="geometry" />
        </mxCell>
        <mxCell id="3QNH7fi-N1RYeguFt9Ue-1609" value="[etudieDansLeDomaine]" style="text;strokeColor=none;align=center;fillColor=none;html=1;verticalAlign=middle;whiteSpace=wrap;rounded=0;rotation=0;strokeWidth=7;fontSize=24;" vertex="1" parent="1">
          <mxGeometry x="481" y="636" width="110" height="30" as="geometry" />
        </mxCell>
        <mxCell id="3QNH7fi-N1RYeguFt9Ue-1610" style="rounded=0;orthogonalLoop=1;jettySize=auto;html=1;exitX=1;exitY=0;exitDx=0;exitDy=0;entryX=0;entryY=0.5;entryDx=0;entryDy=0;shadow=0;fillColor=#fff2cc;strokeColor=#d6b656;strokeWidth=7;" edge="1" parent="1" source="3QNH7fi-N1RYeguFt9Ue-1614" target="3QNH7fi-N1RYeguFt9Ue-1618">
          <mxGeometry relative="1" as="geometry" />
        </mxCell>
        <mxCell id="3QNH7fi-N1RYeguFt9Ue-1611" style="rounded=0;orthogonalLoop=1;jettySize=auto;html=1;exitX=1;exitY=0.5;exitDx=0;exitDy=0;entryX=0;entryY=0.5;entryDx=0;entryDy=0;fillColor=#fff2cc;strokeColor=#d6b656;strokeWidth=7;" edge="1" parent="1" source="3QNH7fi-N1RYeguFt9Ue-1614" target="3QNH7fi-N1RYeguFt9Ue-1617">
          <mxGeometry relative="1" as="geometry" />
        </mxCell>
        <mxCell id="3QNH7fi-N1RYeguFt9Ue-1612" style="rounded=0;orthogonalLoop=1;jettySize=auto;html=1;exitX=1;exitY=1;exitDx=0;exitDy=0;entryX=0;entryY=0.5;entryDx=0;entryDy=0;fillColor=#fff2cc;strokeColor=#d6b656;strokeWidth=7;" edge="1" parent="1" source="3QNH7fi-N1RYeguFt9Ue-1614" target="3QNH7fi-N1RYeguFt9Ue-1616">
          <mxGeometry relative="1" as="geometry" />
        </mxCell>
        <mxCell id="3QNH7fi-N1RYeguFt9Ue-1613" style="rounded=0;orthogonalLoop=1;jettySize=auto;html=1;exitX=1;exitY=0;exitDx=0;exitDy=0;entryX=0;entryY=0.5;entryDx=0;entryDy=0;fillColor=#fff2cc;strokeColor=#d6b656;strokeWidth=7;" edge="1" parent="1" source="3QNH7fi-N1RYeguFt9Ue-1614" target="3QNH7fi-N1RYeguFt9Ue-1615">
          <mxGeometry relative="1" as="geometry" />
        </mxCell>
        <mxCell id="3QNH7fi-N1RYeguFt9Ue-1614" value="&lt;font style=&quot;font-size: 24px;&quot;&gt;stagaire3&lt;/font&gt;" style="ellipse;whiteSpace=wrap;html=1;fillColor=#f8cecc;strokeColor=#b85450;" vertex="1" parent="1">
          <mxGeometry x="145" y="1020" width="160" height="110" as="geometry" />
        </mxCell>
        <mxCell id="3QNH7fi-N1RYeguFt9Ue-1615" value="&lt;font&gt;l&#39;informatique&lt;/font&gt;" style="ellipse;whiteSpace=wrap;html=1;fillColor=#fff2cc;strokeColor=#d6b656;strokeWidth=7;fontSize=24;" vertex="1" parent="1">
          <mxGeometry x="1230" y="611" width="170" height="80" as="geometry" />
        </mxCell>
        <mxCell id="3QNH7fi-N1RYeguFt9Ue-1616" value="&lt;font&gt;ecole1&lt;/font&gt;" style="ellipse;whiteSpace=wrap;html=1;fillColor=#fff2cc;strokeColor=#d6b656;strokeWidth=7;fontSize=24;" vertex="1" parent="1">
          <mxGeometry x="715" y="1130" width="120" height="80" as="geometry" />
        </mxCell>
        <mxCell id="3QNH7fi-N1RYeguFt9Ue-1617" value="&lt;font&gt;ben kamla&lt;/font&gt;" style="ellipse;whiteSpace=wrap;html=1;fillColor=#fff2cc;strokeColor=#d6b656;strokeWidth=7;fontSize=24;" vertex="1" parent="1">
          <mxGeometry x="715" y="1045" width="120" height="80" as="geometry" />
        </mxCell>
        <mxCell id="3QNH7fi-N1RYeguFt9Ue-1618" value="&lt;font&gt;malak&lt;/font&gt;" style="ellipse;whiteSpace=wrap;html=1;fillColor=#fff2cc;strokeColor=#d6b656;strokeWidth=7;fontSize=24;" vertex="1" parent="1">
          <mxGeometry x="720" y="955" width="120" height="80" as="geometry" />
        </mxCell>
        <mxCell id="3QNH7fi-N1RYeguFt9Ue-1619" value="[aPourPrenom]" style="text;strokeColor=none;align=center;fillColor=none;html=1;verticalAlign=middle;whiteSpace=wrap;rounded=0;rotation=-5;strokeWidth=7;fontSize=24;" vertex="1" parent="1">
          <mxGeometry x="500" y="986" width="60" height="30" as="geometry" />
        </mxCell>
        <mxCell id="3QNH7fi-N1RYeguFt9Ue-1620" value="[aPourNom]" style="text;strokeColor=none;align=center;fillColor=none;html=1;verticalAlign=middle;whiteSpace=wrap;rounded=0;rotation=0;strokeWidth=7;fontSize=24;" vertex="1" parent="1">
          <mxGeometry x="466" y="1041" width="60" height="30" as="geometry" />
        </mxCell>
        <mxCell id="3QNH7fi-N1RYeguFt9Ue-1621" value="[etudieAl&#39;ecole]" style="text;strokeColor=none;align=center;fillColor=none;html=1;verticalAlign=middle;whiteSpace=wrap;rounded=0;rotation=5;strokeWidth=7;fontSize=24;" vertex="1" parent="1">
          <mxGeometry x="475" y="1105" width="60" height="30" as="geometry" />
        </mxCell>
        <mxCell id="3QNH7fi-N1RYeguFt9Ue-1622" value="[etudieDansLeDomaine]" style="text;strokeColor=none;align=center;fillColor=none;html=1;verticalAlign=middle;whiteSpace=wrap;rounded=0;rotation=-20;strokeWidth=7;fontSize=24;" vertex="1" parent="1">
          <mxGeometry x="415" y="930" width="60" height="30" as="geometry" />
        </mxCell>
        <mxCell id="3QNH7fi-N1RYeguFt9Ue-1633" style="rounded=0;orthogonalLoop=1;jettySize=auto;html=1;exitX=1;exitY=0;exitDx=0;exitDy=0;fillColor=#fff2cc;strokeColor=#d6b656;strokeWidth=7;" edge="1" parent="1" source="3QNH7fi-N1RYeguFt9Ue-1626" target="3QNH7fi-N1RYeguFt9Ue-1629">
          <mxGeometry relative="1" as="geometry" />
        </mxCell>
        <mxCell id="3QNH7fi-N1RYeguFt9Ue-1634" style="rounded=0;orthogonalLoop=1;jettySize=auto;html=1;exitX=1;exitY=0.5;exitDx=0;exitDy=0;fillColor=#fff2cc;strokeColor=#d6b656;strokeWidth=7;" edge="1" parent="1" source="3QNH7fi-N1RYeguFt9Ue-1626" target="3QNH7fi-N1RYeguFt9Ue-1628">
          <mxGeometry relative="1" as="geometry" />
        </mxCell>
        <mxCell id="3QNH7fi-N1RYeguFt9Ue-1636" style="rounded=0;orthogonalLoop=1;jettySize=auto;html=1;exitX=0.5;exitY=1;exitDx=0;exitDy=0;entryX=1;entryY=0;entryDx=0;entryDy=0;fillColor=#fff2cc;strokeColor=#d6b656;strokeWidth=7;fontSize=24;" edge="1" parent="1" source="3QNH7fi-N1RYeguFt9Ue-1626" target="3QNH7fi-N1RYeguFt9Ue-1615">
          <mxGeometry relative="1" as="geometry" />
        </mxCell>
        <mxCell id="3QNH7fi-N1RYeguFt9Ue-1626" value="&lt;font&gt;Professeur1&lt;/font&gt;" style="ellipse;whiteSpace=wrap;html=1;fillColor=#dae8fc;strokeColor=#6c8ebf;strokeWidth=7;fontSize=24;" vertex="1" parent="1">
          <mxGeometry x="1490" y="193" width="190" height="80" as="geometry" />
        </mxCell>
        <mxCell id="3QNH7fi-N1RYeguFt9Ue-1627" value="&lt;font style=&quot;font-size: 24px;&quot;&gt;poitiers&lt;/font&gt;" style="ellipse;whiteSpace=wrap;html=1;fillColor=#fff2cc;strokeColor=#d6b656;strokeWidth=7;" vertex="1" parent="1">
          <mxGeometry x="2010" y="334" width="120" height="80" as="geometry" />
        </mxCell>
        <mxCell id="3QNH7fi-N1RYeguFt9Ue-1628" value="&lt;font style=&quot;font-size: 24px;&quot;&gt;Bellatreche&lt;/font&gt;" style="ellipse;whiteSpace=wrap;html=1;fillColor=#fff2cc;strokeColor=#d6b656;strokeWidth=7;" vertex="1" parent="1">
          <mxGeometry x="2010" y="239" width="120" height="80" as="geometry" />
        </mxCell>
        <mxCell id="3QNH7fi-N1RYeguFt9Ue-1629" value="&lt;font style=&quot;font-size: 24px;&quot;&gt;Ladjel&lt;/font&gt;" style="ellipse;whiteSpace=wrap;html=1;fillColor=#fff2cc;strokeColor=#d6b656;strokeWidth=7;" vertex="1" parent="1">
          <mxGeometry x="2010" y="134" width="120" height="80" as="geometry" />
        </mxCell>
        <mxCell id="3QNH7fi-N1RYeguFt9Ue-1630" value="[aPourPrenom]" style="text;strokeColor=none;align=center;fillColor=none;html=1;verticalAlign=middle;whiteSpace=wrap;rounded=0;rotation=-5;strokeWidth=7;fontSize=24;" vertex="1" parent="1">
          <mxGeometry x="1771" y="159" width="60" height="30" as="geometry" />
        </mxCell>
        <mxCell id="3QNH7fi-N1RYeguFt9Ue-1631" value="[aPourNom]" style="text;strokeColor=none;align=center;fillColor=none;html=1;verticalAlign=middle;whiteSpace=wrap;rounded=0;rotation=5;strokeWidth=7;fontSize=24;" vertex="1" parent="1">
          <mxGeometry x="1761" y="245" width="60" height="30" as="geometry" />
        </mxCell>
        <mxCell id="3QNH7fi-N1RYeguFt9Ue-1632" value="[enseigneAl&#39;ecole]" style="text;strokeColor=none;align=center;fillColor=none;html=1;verticalAlign=middle;whiteSpace=wrap;rounded=0;rotation=15;strokeWidth=7;fontSize=24;" vertex="1" parent="1">
          <mxGeometry x="1771" y="309" width="60" height="30" as="geometry" />
        </mxCell>
        <mxCell id="3QNH7fi-N1RYeguFt9Ue-1635" style="rounded=0;orthogonalLoop=1;jettySize=auto;html=1;exitX=1;exitY=1;exitDx=0;exitDy=0;entryX=0.153;entryY=0.633;entryDx=0;entryDy=0;entryPerimeter=0;fillColor=#fff2cc;strokeColor=#d6b656;strokeWidth=7;" edge="1" parent="1" source="3QNH7fi-N1RYeguFt9Ue-1626" target="3QNH7fi-N1RYeguFt9Ue-1627">
          <mxGeometry relative="1" as="geometry" />
        </mxCell>
        <mxCell id="3QNH7fi-N1RYeguFt9Ue-1637" value="[enseigneDansLeDomaine]" style="text;strokeColor=none;align=center;fillColor=none;html=1;verticalAlign=middle;whiteSpace=wrap;rounded=0;strokeWidth=7;fontSize=24;" vertex="1" parent="1">
          <mxGeometry x="1520" y="350" width="60" height="30" as="geometry" />
        </mxCell>
        <mxCell id="3QNH7fi-N1RYeguFt9Ue-1639" style="rounded=0;orthogonalLoop=1;jettySize=auto;html=1;exitX=1;exitY=0;exitDx=0;exitDy=0;fillColor=#fff2cc;strokeColor=#d6b656;strokeWidth=7;" edge="1" parent="1" source="3QNH7fi-N1RYeguFt9Ue-1641" target="3QNH7fi-N1RYeguFt9Ue-1644">
          <mxGeometry relative="1" as="geometry" />
        </mxCell>
        <mxCell id="3QNH7fi-N1RYeguFt9Ue-1640" style="rounded=0;orthogonalLoop=1;jettySize=auto;html=1;exitX=1;exitY=0.5;exitDx=0;exitDy=0;fillColor=#fff2cc;strokeColor=#d6b656;strokeWidth=7;" edge="1" parent="1" source="3QNH7fi-N1RYeguFt9Ue-1641" target="3QNH7fi-N1RYeguFt9Ue-1643">
          <mxGeometry relative="1" as="geometry" />
        </mxCell>
        <mxCell id="3QNH7fi-N1RYeguFt9Ue-1654" style="rounded=0;orthogonalLoop=1;jettySize=auto;html=1;exitX=0;exitY=0;exitDx=0;exitDy=0;entryX=1;entryY=1;entryDx=0;entryDy=0;fillColor=#fff2cc;strokeColor=#d6b656;strokeWidth=7;" edge="1" parent="1" source="3QNH7fi-N1RYeguFt9Ue-1641" target="3QNH7fi-N1RYeguFt9Ue-1615">
          <mxGeometry relative="1" as="geometry" />
        </mxCell>
        <mxCell id="3QNH7fi-N1RYeguFt9Ue-1641" value="&lt;font&gt;Professeur1&lt;/font&gt;" style="ellipse;whiteSpace=wrap;html=1;fillColor=#dae8fc;strokeColor=#6c8ebf;strokeWidth=7;fontSize=24;" vertex="1" parent="1">
          <mxGeometry x="1480" y="804" width="190" height="80" as="geometry" />
        </mxCell>
        <mxCell id="3QNH7fi-N1RYeguFt9Ue-1642" value="&lt;span style=&quot;font-size: 24px;&quot;&gt;Esi-sba&lt;/span&gt;" style="ellipse;whiteSpace=wrap;html=1;fillColor=#fff2cc;strokeColor=#d6b656;strokeWidth=7;" vertex="1" parent="1">
          <mxGeometry x="2000" y="945" width="120" height="80" as="geometry" />
        </mxCell>
        <mxCell id="3QNH7fi-N1RYeguFt9Ue-1643" value="&lt;font style=&quot;font-size: 24px;&quot;&gt;Benslimane&lt;/font&gt;" style="ellipse;whiteSpace=wrap;html=1;fillColor=#fff2cc;strokeColor=#d6b656;strokeWidth=7;" vertex="1" parent="1">
          <mxGeometry x="2000" y="850" width="160" height="80" as="geometry" />
        </mxCell>
        <mxCell id="3QNH7fi-N1RYeguFt9Ue-1644" value="&lt;font style=&quot;font-size: 24px;&quot;&gt;sidi mhammed&lt;/font&gt;" style="ellipse;whiteSpace=wrap;html=1;fillColor=#fff2cc;strokeColor=#d6b656;strokeWidth=7;" vertex="1" parent="1">
          <mxGeometry x="2000" y="745" width="180" height="80" as="geometry" />
        </mxCell>
        <mxCell id="3QNH7fi-N1RYeguFt9Ue-1645" value="[aPourPrenom]" style="text;strokeColor=none;align=center;fillColor=none;html=1;verticalAlign=middle;whiteSpace=wrap;rounded=0;rotation=-5;strokeWidth=7;fontSize=24;" vertex="1" parent="1">
          <mxGeometry x="1740" y="774" width="60" height="30" as="geometry" />
        </mxCell>
        <mxCell id="3QNH7fi-N1RYeguFt9Ue-1646" value="[aPourNom]" style="text;strokeColor=none;align=center;fillColor=none;html=1;verticalAlign=middle;whiteSpace=wrap;rounded=0;rotation=5;strokeWidth=7;fontSize=24;" vertex="1" parent="1">
          <mxGeometry x="1790" y="829" width="60" height="30" as="geometry" />
        </mxCell>
        <mxCell id="3QNH7fi-N1RYeguFt9Ue-1647" value="[enseigneAl&#39;ecole]" style="text;strokeColor=none;align=center;fillColor=none;html=1;verticalAlign=middle;whiteSpace=wrap;rounded=0;rotation=15;strokeWidth=7;fontSize=24;" vertex="1" parent="1">
          <mxGeometry x="1790" y="884" width="60" height="30" as="geometry" />
        </mxCell>
        <mxCell id="3QNH7fi-N1RYeguFt9Ue-1648" style="rounded=0;orthogonalLoop=1;jettySize=auto;html=1;exitX=1;exitY=1;exitDx=0;exitDy=0;entryX=0.153;entryY=0.633;entryDx=0;entryDy=0;entryPerimeter=0;fillColor=#fff2cc;strokeColor=#d6b656;strokeWidth=7;" edge="1" parent="1" source="3QNH7fi-N1RYeguFt9Ue-1641" target="3QNH7fi-N1RYeguFt9Ue-1642">
          <mxGeometry relative="1" as="geometry" />
        </mxCell>
        <mxCell id="3QNH7fi-N1RYeguFt9Ue-1649" value="[enseigneDansLeDomaine]" style="text;strokeColor=none;align=center;fillColor=none;html=1;verticalAlign=middle;whiteSpace=wrap;rounded=0;strokeWidth=7;fontSize=24;" vertex="1" parent="1">
          <mxGeometry x="1370" y="721" width="60" height="30" as="geometry" />
        </mxCell>
        <mxCell id="3QNH7fi-N1RYeguFt9Ue-1657" value="&lt;font style=&quot;font-size: 24px;&quot;&gt;[encadrerPar]&lt;/font&gt;" style="text;html=1;align=center;verticalAlign=middle;resizable=0;points=[];autosize=1;strokeColor=none;fillColor=none;" vertex="1" parent="1">
          <mxGeometry x="1020" y="40" width="170" height="40" as="geometry" />
        </mxCell>
        <mxCell id="3QNH7fi-N1RYeguFt9Ue-1659" value="&lt;font style=&quot;font-size: 24px;&quot;&gt;[suitLecourde]&lt;/font&gt;" style="text;html=1;align=center;verticalAlign=middle;resizable=0;points=[];autosize=1;strokeColor=none;fillColor=none;" vertex="1" parent="1">
          <mxGeometry x="1040" y="785" width="170" height="40" as="geometry" />
        </mxCell>
        <mxCell id="3QNH7fi-N1RYeguFt9Ue-1667" value="&lt;font style=&quot;font-size: 24px;&quot;&gt;[encadrerPar]&lt;/font&gt;" style="text;html=1;align=center;verticalAlign=middle;resizable=0;points=[];autosize=1;strokeColor=none;fillColor=none;" vertex="1" parent="1">
          <mxGeometry x="1020" y="380" width="170" height="40" as="geometry" />
        </mxCell>
        <mxCell id="3QNH7fi-N1RYeguFt9Ue-1668" style="edgeStyle=orthogonalEdgeStyle;rounded=0;orthogonalLoop=1;jettySize=auto;html=1;exitX=0;exitY=0;exitDx=0;exitDy=0;entryX=0.768;entryY=0.05;entryDx=0;entryDy=0;entryPerimeter=0;fillColor=#dae8fc;strokeColor=#6c8ebf;strokeWidth=7;" edge="1" parent="1" source="3QNH7fi-N1RYeguFt9Ue-1542" target="3QNH7fi-N1RYeguFt9Ue-1626">
          <mxGeometry relative="1" as="geometry">
            <Array as="points">
              <mxPoint x="163" y="-40" />
              <mxPoint x="1636" y="-40" />
            </Array>
          </mxGeometry>
        </mxCell>
        <mxCell id="3QNH7fi-N1RYeguFt9Ue-1671" value="&lt;font style=&quot;font-size: 24px;&quot;&gt;[suitLecourde]&lt;/font&gt;" style="text;html=1;align=center;verticalAlign=middle;resizable=0;points=[];autosize=1;strokeColor=none;fillColor=none;" vertex="1" parent="1">
          <mxGeometry x="990" y="-80" width="170" height="40" as="geometry" />
        </mxCell>
      </root>
    </mxGraphModel>
  </diagram>
</mxfile>
